<svg width="1117" height="338" viewBox="0 0 1117 338" fill="none" xmlns="http://www.w3.org/2000/svg">
<g style="mix-blend-mode:plus-darker">
<rect x="153.42" y="171.838" width="56.2057" height="88.0498" rx="28.1029" transform="rotate(133.08 153.42 171.838)" fill="#D9D9D9"/>
</g>
<g style="mix-blend-mode:plus-darker">
<path d="M50.697 242.621C45.0138 244.85 39.0282 240.149 39.8478 234.099L47.2404 179.535C48.0708 173.406 55.2453 170.497 60.1095 174.318L103.976 208.773C108.841 212.593 107.714 220.253 101.956 222.512L50.697 242.621Z" fill="#D9D9D9"/>
</g>
<g style="mix-blend-mode:plus-darker">
<path d="M105 242.959C105 242.959 137.216 247.174 155.368 213.343C173.519 179.513 152.195 155 152.195 155" stroke="#D9D9D9" stroke-width="16.8169" stroke-linecap="round"/>
</g>
<g style="mix-blend-mode:plus-darker">
<rect x="133.12" y="148.772" width="73.832" height="47.4634" rx="6.72676" transform="rotate(-122.915 133.12 148.772)" fill="#D9D9D9"/>
</g>
<g style="mix-blend-mode:plus-darker">
<rect x="93" y="70" width="54" height="54" rx="27" transform="rotate(90 93 70)" fill="#D9D9D9"/>
</g>
<g style="mix-blend-mode:plus-darker">
<rect x="24" y="51" width="161" height="214" rx="23" stroke="#D9D9D9" stroke-width="16"/>
</g>
<g style="mix-blend-mode:plus-darker">
<path d="M241.979 257V75.5384H297.713C318.797 75.5384 336.252 79.2541 350.078 86.6854C363.903 94.1167 374.1 104.659 380.667 118.312C387.407 131.792 390.777 147.864 390.777 166.528C390.777 185.193 387.407 201.265 380.667 214.745C374.1 228.225 363.903 238.681 350.078 246.112C336.425 253.371 318.97 257 297.713 257H241.979ZM267.902 235.225H296.676C313.44 235.225 326.747 232.459 336.598 226.929C346.449 221.399 353.448 213.536 357.596 203.339C361.916 192.97 364.076 180.7 364.076 166.528C364.076 152.184 361.916 139.828 357.596 129.458C353.448 119.089 346.449 111.139 336.598 105.609C326.747 100.079 313.44 97.3138 296.676 97.3138H267.902V235.225ZM479.78 260.111C467.337 260.111 456.277 257.259 446.599 251.556C436.921 245.853 429.317 237.903 423.786 227.707C418.429 217.511 415.75 205.672 415.75 192.192C415.75 178.367 418.429 166.356 423.786 156.159C429.317 145.79 436.921 137.754 446.599 132.051C456.277 126.175 467.51 123.237 480.299 123.237C493.087 123.237 504.062 126.088 513.221 131.792C522.381 137.495 529.466 145.099 534.478 154.604C539.49 163.936 541.996 174.305 541.996 185.712C541.996 187.44 541.909 189.341 541.736 191.415C541.736 193.316 541.65 195.476 541.477 197.895H434.674V179.49H516.073C515.554 168.602 511.925 160.134 505.185 154.085C498.445 147.864 490.063 144.753 480.04 144.753C472.954 144.753 466.473 146.395 460.597 149.678C454.721 152.789 449.969 157.455 446.34 163.677C442.883 169.726 441.155 177.416 441.155 186.748V194.007C441.155 203.685 442.883 211.894 446.34 218.634C449.969 225.201 454.721 230.213 460.597 233.669C466.473 236.953 472.867 238.595 479.78 238.595C488.076 238.595 494.902 236.78 500.26 233.151C505.617 229.522 509.592 224.596 512.184 218.375H538.107C535.861 226.324 532.059 233.496 526.701 239.891C521.344 246.112 514.69 251.038 506.74 254.667C498.963 258.296 489.977 260.111 479.78 260.111ZM629.901 260.111C617.458 260.111 606.398 257.259 596.72 251.556C587.042 245.853 579.438 237.903 573.907 227.707C568.55 217.511 565.871 205.672 565.871 192.192C565.871 178.367 568.55 166.356 573.907 156.159C579.438 145.79 587.042 137.754 596.72 132.051C606.398 126.175 617.631 123.237 630.42 123.237C643.208 123.237 654.183 126.088 663.342 131.792C672.502 137.495 679.587 145.099 684.599 154.604C689.611 163.936 692.117 174.305 692.117 185.712C692.117 187.44 692.03 189.341 691.857 191.415C691.857 193.316 691.771 195.476 691.598 197.895H584.795V179.49H666.194C665.675 168.602 662.046 160.134 655.306 154.085C648.566 147.864 640.184 144.753 630.16 144.753C623.075 144.753 616.594 146.395 610.718 149.678C604.842 152.789 600.09 157.455 596.46 163.677C593.004 169.726 591.276 177.416 591.276 186.748V194.007C591.276 203.685 593.004 211.894 596.46 218.634C600.09 225.201 604.842 230.213 610.718 233.669C616.594 236.953 622.988 238.595 629.901 238.595C638.197 238.595 645.023 236.78 650.38 233.151C655.738 229.522 659.713 224.596 662.305 218.375H688.228C685.982 226.324 682.179 233.496 676.822 239.891C671.465 246.112 664.811 251.038 656.861 254.667C649.084 258.296 640.098 260.111 629.901 260.111ZM720.918 314.031V126.348H744.248L746.841 146.568C749.606 142.593 753.062 138.877 757.21 135.421C761.358 131.792 766.283 128.854 771.986 126.607C777.862 124.36 784.688 123.237 792.465 123.237C804.908 123.237 815.796 126.261 825.128 132.31C834.633 138.359 841.978 146.568 847.163 156.937C852.52 167.133 855.199 178.799 855.199 191.933C855.199 205.067 852.52 216.819 847.163 227.188C841.806 237.385 834.374 245.421 824.869 251.297C815.537 257.173 804.649 260.111 792.206 260.111C782.01 260.111 773.023 258.123 765.246 254.148C757.469 250.001 751.334 244.298 746.841 237.039V314.031H720.918ZM788.058 237.558C796.008 237.558 803.007 235.657 809.056 231.855C815.278 228.053 820.117 222.695 823.573 215.782C827.202 208.869 829.017 200.833 829.017 191.674C829.017 182.514 827.202 174.565 823.573 167.825C820.117 160.912 815.278 155.554 809.056 151.752C803.007 147.777 796.008 145.79 788.058 145.79C779.936 145.79 772.764 147.777 766.542 151.752C760.493 155.554 755.741 160.912 752.284 167.825C748.828 174.565 747.1 182.514 747.1 191.674C747.1 200.833 748.828 208.869 752.284 215.782C755.741 222.695 760.493 228.053 766.542 231.855C772.764 235.657 779.936 237.558 788.058 237.558ZM944.573 260.111C932.13 260.111 921.069 257.259 911.391 251.556C901.713 245.853 894.109 237.903 888.579 227.707C883.222 217.511 880.543 205.672 880.543 192.192C880.543 178.367 883.222 166.356 888.579 156.159C894.109 145.79 901.713 137.754 911.391 132.051C921.069 126.175 932.303 123.237 945.091 123.237C957.88 123.237 968.854 126.088 978.014 131.792C987.173 137.495 994.259 145.099 999.271 154.604C1004.28 163.936 1006.79 174.305 1006.79 185.712C1006.79 187.44 1006.7 189.341 1006.53 191.415C1006.53 193.316 1006.44 195.476 1006.27 197.895H899.467V179.49H980.865C980.347 168.602 976.718 160.134 969.978 154.085C963.238 147.864 954.856 144.753 944.832 144.753C937.747 144.753 931.266 146.395 925.39 149.678C919.514 152.789 914.761 157.455 911.132 163.677C907.676 169.726 905.948 177.416 905.948 186.748V194.007C905.948 203.685 907.676 211.894 911.132 218.634C914.761 225.201 919.514 230.213 925.39 233.669C931.266 236.953 937.66 238.595 944.573 238.595C952.868 238.595 959.695 236.78 965.052 233.151C970.41 229.522 974.384 224.596 976.977 218.375H1002.9C1000.65 226.324 996.851 233.496 991.494 239.891C986.136 246.112 979.483 251.038 971.533 254.667C963.756 258.296 954.769 260.111 944.573 260.111ZM1035.59 257V126.348H1058.92L1061.25 150.975C1064.19 145.099 1067.99 140.173 1072.66 136.198C1077.33 132.051 1082.77 128.854 1088.99 126.607C1095.39 124.36 1102.64 123.237 1110.77 123.237V150.715H1101.43C1096.08 150.715 1090.98 151.407 1086.14 152.789C1081.3 153.999 1076.98 156.159 1073.18 159.27C1069.55 162.381 1066.7 166.615 1064.62 171.972C1062.55 177.33 1061.51 183.983 1061.51 191.933V257H1035.59Z" fill="#D9D9D9"/>
</g>
</svg>
